PathFileType	4	(X/Y/Z)	c:/Users/goper/Files/vsCode/490R/osim_files/A04/A04_Fast_05.trc
DataRate	CameraRate	NumFrames	NumMarkers	Units                	OrigDataRate	OrigDataStartFrame	OrigNumFrames
120.00	120.00	9	36	mm	120.0	727	1162
                Frame#	Time	LPSIS			LASIS			LTH1			LTH2			LTH3			LTH4			LLFE			LMFE			LSH1			LSH2			LSH3			LSH4			LLMAL			LMMAL			LCAL			LMTP5			LTOE			LMTP1			RPSIS			RASIS			RTH1			RTH2			RTH3			RTH4			RLFE			RMFE			RSH1			RSH2			RSH3			RSH4			RLMAL			RMMAL			RCAL			RMTP1			RTOE			RMTP5		
		X1	Y1	Z1	X2	Y2	Z2	X3	Y3	Z3	X4	Y4	Z4	X5	Y5	Z5	X6	Y6	Z6	X7	Y7	Z7	X8	Y8	Z8	X9	Y9	Z9	X10	Y10	Z10	X11	Y11	Z11	X12	Y12	Z12	X13	Y13	Z13	X14	Y14	Z14	X15	Y15	Z15	X16	Y16	Z16	X17	Y17	Z17	X18	Y18	Z18	X19	Y19	Z19	X20	Y20	Z20	X21	Y21	Z21	X22	Y22	Z22	X23	Y23	Z23	X24	Y24	Z24	X25	Y25	Z25	X26	Y26	Z26	X27	Y27	Z27	X28	Y28	Z28	X29	Y29	Z29	X30	Y30	Z30	X31	Y31	Z31	X32	Y32	Z32	X33	Y33	Z33	X34	Y34	Z34	X35	Y35	Z35	X36	Y36	Z36

727	6.05000	-683.15161	1068.77258	332.64761	-904.74042	1019.44745	410.52045	-938.45233	720.31531	445.21005	-961.89948	682.73566	444.58972	-992.24841	749.23053	439.15298	-1010.08069	707.20538	440.90222	-1037.85278	563.54840	433.51169	-1054.65796	568.38324	294.90298	-1022.56525	456.91641	433.71075	-1036.60559	416.08661	431.44543	-1082.69995	470.29147	423.05954	-1086.95654	427.13046	420.48212	-1065.31482	134.88420	387.32935	-1089.68481	142.12247	303.18286	-1007.71667	91.55270	328.10565	-1207.76819	90.24545	426.22009	-1256.26416	110.94779	366.36246	-1242.18848	96.28419	321.48682	-679.46844	1058.80225	226.36581	-898.72876	1020.02393	124.60071	-734.08008	734.48810	103.21339	-734.17688	692.54675	104.95195	-794.95667	727.84985	91.75450	-786.38129	681.35699	98.63597	-758.41791	548.31696	127.71564	-777.31128	543.02893	242.51074	-664.45459	347.49313	142.84921	-663.55121	300.09109	150.63580	-722.97797	338.37378	130.25932	-712.67804	292.03604	136.43224	-660.83319	105.26804	145.07747	-700.99469	112.74010	274.21655	-598.41772	64.17155	230.13234	-826.40051	56.20773	240.67952	-843.87744	77.50942	192.21089	-802.32996	50.70543	123.38799
728	6.05833	-693.44849	1066.77136	332.29706	-914.92401	1016.97028	410.60355	-945.82489	716.51501	443.04993	-969.02307	678.68811	442.43796	-999.68689	745.06842	437.42206	-1017.30402	703.06464	439.07327	-1045.37500	559.71576	431.08670	-1063.30273	565.31494	292.72293	-1035.16235	452.47342	431.33530	-1051.97498	411.64679	427.99570	-1094.76208	468.68134	421.12503	-1101.05273	425.86740	418.69028	-1094.45142	132.79944	386.16232	-1118.76135	141.44905	302.37354	-1038.94727	87.13515	326.63303	-1238.81641	94.76124	425.12405	-1286.03345	117.63446	365.67981	-1272.84070	102.54452	320.60883	-689.80450	1057.16968	226.16585	-909.12567	1018.41125	124.65366	-741.09918	734.60474	102.93729	-740.66620	692.66656	104.78815	-801.93225	727.18048	91.75590	-792.68481	680.79651	98.62817	-763.17920	547.85858	127.53288	-781.58441	542.57037	242.64897	-667.03320	347.94946	142.79599	-665.74188	300.50653	150.57608	-725.41797	338.33313	130.21469	-714.74548	292.14737	136.37991	-661.38544	105.78461	145.08582	-701.72333	112.86695	274.18039	-598.75793	64.69710	230.11385	-826.18304	56.10536	241.00131	-844.09186	77.13779	192.26791	-802.67548	50.63131	123.34544
729	6.06667	-703.81427	1064.66553	331.99783	-925.28601	1014.45367	410.83859	-952.93164	712.51636	440.89679	-975.89325	674.56732	440.21207	-1007.10748	740.65558	435.59055	-1024.40820	698.65961	437.09821	-1053.13403	555.66003	428.63654	-1071.44641	562.00360	290.26468	-1048.17383	447.83102	428.76630	-1066.22363	408.43521	425.83163	-1106.67114	467.11008	419.02969	-1115.04651	424.79773	416.60928	-1122.29907	131.64677	384.43491	-1146.97729	141.53381	300.60339	-1069.22107	83.45252	324.84756	-1268.05420	100.38088	424.36862	-1314.41272	124.91532	365.02383	-1302.57178	109.56528	320.06580	-700.15546	1055.48352	225.88126	-919.63849	1016.79382	124.77934	-748.31018	734.62677	102.61726	-747.28412	692.65143	104.62257	-809.01776	726.46967	91.61668	-799.27094	680.22021	98.61568	-768.20972	547.39661	127.33633	-786.20148	542.11292	242.70532	-669.86053	348.40451	142.77924	-668.12878	300.95389	150.54987	-728.06189	338.24979	130.19380	-717.04572	292.16534	136.28403	-662.05139	106.28470	145.10922	-702.51111	113.09042	274.08105	-599.11084	65.28722	230.14207	-826.26776	55.81094	241.08739	-844.38177	76.84039	192.25426	-802.76642	50.52574	123.38528
730	6.07500	-714.30414	1062.49390	331.75040	-935.79138	1012.01031	411.05377	-960.15332	708.31055	438.69052	-982.66687	670.14160	437.90875	-1014.60199	735.97186	433.60739	-1031.60754	693.84839	435.11621	-1060.60217	551.56964	426.08426	-1079.66785	558.71564	287.90118	-1060.08301	443.94626	426.38318	-1079.84839	405.67609	424.48047	-1118.19348	465.54498	416.80200	-1128.52771	423.64706	414.53448	-1148.90393	131.25200	382.51260	-1173.40088	142.02789	298.99481	-1098.70117	80.36380	322.57663	-1295.75208	106.67944	423.69449	-1341.27295	133.29860	364.75623	-1330.52051	117.24717	319.78323	-710.75934	1053.61230	225.57867	-930.02844	1015.01770	124.95758	-755.62103	734.60138	102.23302	-754.13519	692.58197	104.33960	-816.25989	725.69818	91.41491	-806.05115	679.61243	98.56757	-773.51813	546.85388	127.04863	-791.16284	541.69788	242.70410	-672.50464	349.14240	142.62721	-670.63556	301.56659	150.44153	-731.05334	338.12482	129.96938	-719.47394	292.25412	136.15575	-662.79553	106.83511	145.12868	-703.16644	113.36945	274.01144	-599.38898	66.02152	230.14494	-826.42035	55.50369	241.09694	-844.63110	76.44012	192.22194	-802.94318	50.42064	123.35558
731	6.08333	-724.93738	1060.18469	331.49792	-946.48151	1009.41205	411.30911	-967.52875	704.06171	436.25473	-989.65320	665.73035	435.62708	-1022.42999	731.23291	431.50406	-1038.90576	688.94495	432.95181	-1067.62732	547.43591	423.29633	-1087.62097	555.48419	285.42358	-1071.50842	439.83856	423.45200	-1092.96216	402.60236	421.92828	-1129.04907	464.02417	414.54846	-1140.95959	422.65665	412.46014	-1174.26575	131.44270	380.75180	-1199.56641	143.09753	297.04492	-1127.24243	78.25684	319.97430	-1321.56628	113.23024	423.15613	-1366.61890	141.93170	364.68213	-1356.76074	125.74931	319.22253	-721.41400	1051.70056	225.32645	-940.59930	1013.15833	125.18037	-763.20013	734.39771	101.76208	-761.24554	692.31940	104.03653	-823.82190	724.85388	91.22385	-813.06165	678.82190	98.38958	-778.99054	546.28674	126.73883	-796.42462	541.14563	242.52780	-675.87671	349.53793	142.51654	-673.31647	302.07248	150.29594	-733.77106	338.02524	130.02576	-722.09320	292.24396	136.01627	-663.51385	107.45476	145.13768	-703.89331	113.70713	273.89426	-599.87646	66.69730	230.01122	-826.55560	55.20210	241.08255	-844.79437	76.15297	192.14821	-803.09955	50.28896	123.35429
732	6.09167	-735.64386	1057.87854	331.40826	-957.36438	1006.74573	411.59863	-975.48889	699.80438	434.08832	-997.23163	661.17621	433.36929	-1030.78186	726.33026	429.33252	-1046.65527	684.00836	430.66855	-1074.26990	543.24628	420.53265	-1095.58643	552.36066	282.86728	-1082.65308	436.02222	420.86810	-1105.56860	399.61890	419.36682	-1139.09375	462.54443	412.37366	-1152.81311	421.82925	410.25510	-1198.34192	132.19585	379.02005	-1224.13818	144.90903	295.50266	-1154.26062	77.14767	317.48547	-1345.95459	119.88408	422.83371	-1390.23596	150.53204	364.69659	-1381.65649	133.99928	319.32562	-732.00458	1049.72607	225.18555	-951.21631	1011.35284	125.32494	-770.89575	734.04254	101.29290	-768.49579	691.90668	103.74767	-831.47595	723.86157	91.01083	-820.44849	677.97687	98.19646	-784.59125	545.70233	126.32880	-802.09857	540.50098	242.38483	-679.16840	349.96872	142.39221	-676.39960	302.57745	150.26068	-736.45105	337.74762	130.07291	-724.79517	292.30661	135.88791	-664.36206	108.10726	145.11143	-704.75159	113.98317	273.80411	-600.33148	67.48240	230.05646	-826.65692	54.84821	241.14510	-844.90039	75.78049	192.12753	-803.21936	50.06957	123.23627
733	6.10000	-746.62158	1055.44275	331.42197	-968.49603	1004.04364	411.87799	-983.91687	695.55792	432.06790	-1005.15979	656.77008	431.07632	-1039.08618	721.54889	427.29562	-1054.77405	679.15100	428.29843	-1080.82507	539.14148	417.62137	-1103.11194	549.28723	280.11169	-1093.29956	432.34378	417.97800	-1117.62366	396.82013	416.63242	-1148.81409	461.05444	410.05533	-1164.06311	420.70078	408.09326	-1221.11377	133.29944	377.23749	-1247.52478	146.91345	293.97745	-1179.89526	76.59338	314.97037	-1368.50732	126.60518	422.53845	-1412.50073	158.67537	364.85471	-1404.81067	142.25125	319.61615	-742.89423	1047.63269	225.22034	-961.79639	1009.46667	125.60301	-778.77429	733.55261	100.88578	-775.90210	691.40436	103.43240	-839.06305	722.86475	90.70649	-827.48035	677.14685	98.00445	-790.55145	545.01331	126.07074	-808.04596	539.62177	242.12064	-682.67609	350.40125	142.24933	-679.35309	303.15469	150.09384	-740.90015	337.60159	128.85115	-727.59387	292.27530	135.72659	-665.12775	108.77726	145.09258	-705.62604	114.33147	273.69260	-600.84460	68.32218	230.06268	-826.80725	54.47821	241.18416	-844.91382	75.36209	192.58099	-803.43433	50.04828	123.22000
734	6.10833	-757.75171	1052.91772	331.56754	-979.67798	1001.30933	412.10538	-992.45367	691.86377	430.04147	-1013.31274	652.65662	428.62640	-1048.05847	717.18585	425.16730	-1063.13440	674.68402	425.73993	-1087.05786	535.07098	414.53513	-1110.67297	546.20935	277.28317	-1103.27441	428.81845	414.91418	-1128.90198	394.23233	413.82526	-1157.88440	459.47260	407.78946	-1174.65063	419.66873	405.93311	-1241.94080	134.57413	375.43448	-1268.90906	149.36555	292.38538	-1203.78003	76.47561	312.67029	-1389.22937	133.30199	422.29767	-1432.52539	167.48802	365.51108	-1426.09863	150.49127	319.84055	-753.81372	1045.49951	225.39711	-972.57782	1007.55200	125.81065	-786.50775	733.09192	100.41319	-783.44757	690.81317	103.22176	-847.05078	721.75891	90.49896	-834.82184	676.15088	97.79124	-796.42175	544.35681	125.67511	-814.33026	538.87537	241.89040	-686.28534	350.93686	142.08450	-682.29388	303.74728	149.93596	-744.39392	337.42142	128.70004	-730.55383	292.29694	135.56625	-665.99249	109.50867	144.98917	-706.49707	114.73624	273.62820	-601.37665	69.32613	229.96149	-826.88147	54.22998	241.23174	-845.18597	75.06017	192.35046	-803.68115	49.92714	123.06653
735	6.11667	-768.86218	1050.51709	331.91458	-991.03052	998.58173	412.28906	-1001.52936	688.23126	427.87076	-1021.88446	649.00616	426.12268	-1057.30505	713.27612	422.76404	-1071.80408	670.58759	423.05734	-1093.60535	531.09503	411.43213	-1118.95715	543.43994	274.50146	-1112.98938	425.34598	411.72870	-1139.58606	391.59052	410.98264	-1166.92139	457.85059	405.78491	-1184.58582	418.47729	403.81052	-1261.61694	135.10466	373.11597	-1288.25256	151.48381	291.19980	-1225.70911	76.04702	310.44354	-1407.86133	139.50804	422.07666	-1450.29089	175.89026	366.28729	-1445.16943	158.39442	320.17490	-764.75989	1043.40027	225.67635	-983.49487	1005.70569	125.93404	-794.50128	732.53058	100.15347	-791.00818	690.23541	103.06231	-854.80249	720.64807	90.29075	-842.31287	675.17719	97.70911	-802.57776	543.58197	125.42387	-820.82928	537.90991	241.58395	-689.85876	351.54315	141.89949	-685.29767	304.29651	149.79564	-747.78339	337.29541	128.55452	-733.53064	292.39124	135.41803	-666.87372	110.35403	144.86427	-707.19647	115.17320	273.52014	-601.90912	70.37463	229.95306	-827.00153	53.99200	241.26822	-845.33746	74.76650	192.32645	-803.81818	49.81952	123.00536
